Coordinates
version=1
nRows=26
nColumns=24
inDegrees=yes

Units are S.I. units (second, meters, Newtons, ...)
Angles are in degrees.

endheader
time	pelvis_tilt	pelvis_list	pelvis_rotation	pelvis_tx	pelvis_ty	pelvis_tz	hip_flexion_r	hip_adduction_r	hip_rotation_r	knee_angle_r	ankle_angle_r	subtalar_angle_r	mtp_angle_r	hip_flexion_l	hip_adduction_l	hip_rotation_l	knee_angle_l	ankle_angle_l	subtalar_angle_l	mtp_angle_l	lumbar_extension	lumbar_bending	lumbar_rotation
      0.46500000	     -7.95420744	     -0.44908249	     -2.26422509	     -0.86521845	      1.02314388	      0.28656466	     37.44710968	      2.00128309	     -4.61668232	    -20.33438536	      7.65553147	      1.08117978	      7.60989835	      0.69988143	     -0.79986963	     -3.22591511	    -23.38393464	     28.89010623	     11.29935000	      3.34465015	     -4.33535109	     -1.38081629	     -0.15734392
      0.46916667	     -7.90960733	     -0.45346052	     -2.23166992	     -0.85874449	      1.02180876	      0.28682702	     37.46228389	      2.07031289	     -4.41552341	    -20.53465609	      7.61493836	      0.84982353	      7.60567138	      0.52708139	     -0.87536965	     -3.49743791	    -23.98727213	     29.01892491	     11.68662897	      3.39744533	     -4.37864578	     -1.32157419	     -0.14516067
      0.47333333	     -7.85915805	     -0.45421663	     -2.19526775	     -0.85222771	      1.02051991	      0.28707300	     37.46824632	      2.13554839	     -4.20037695	    -20.82026735	      7.60076750	      0.60405831	      7.60286582	      0.36235626	     -0.94632730	     -3.73333789	    -24.62360835	     29.12178612	     12.06619627	      3.47248648	     -4.42667458	     -1.25392859	     -0.13833500
      0.47750000	     -7.78974651	     -0.49906901	     -2.15519373	     -0.84564400	      1.01930650	      0.28732099	     37.43181897	      2.24032436	     -4.02073967	    -21.14831581	      7.52321147	      0.32856663	      7.59906431	      0.20953421	     -1.08705532	     -4.03926290	    -25.34598859	     29.17807588	     12.51224434	      3.60108308	     -4.47776835	     -1.13963923	     -0.11992900
      0.48166667	     -7.70076014	     -0.52678336	     -2.11818107	     -0.83907477	      1.01814865	      0.28758196	     37.38115195	      2.33402987	     -3.81500931	    -21.56230507	      7.46762777	      0.04559984	      7.59663137	      0.05859171	     -1.21443062	     -4.33420984	    -26.10409951	     29.19079622	     12.95695258	      3.77805539	     -4.56041878	     -1.03578867	     -0.10528013
      0.48583333	     -7.62532665	     -0.56136729	     -2.07258230	     -0.83244917	      1.01701294	      0.28782738	     37.33502104	      2.43134198	     -3.61630637	    -22.03418937	      7.41612377	     -0.27068318	      7.60817637	     -0.05135178	     -1.35593251	     -4.60074580	    -26.92062555	     29.10679229	     13.36667123	      6.37550895	     -4.62133150	     -0.92507519	     -0.03331780
      0.49000000	     -7.53688913	     -0.59625869	     -2.03234840	     -0.82581163	      1.01592831	      0.28808631	     37.27365705	      2.53420215	     -3.40640188	    -22.56479641	      7.34247261	     -0.60649123	      7.60448084	     -0.15236408	     -1.50847932	     -4.88356141	    -27.79316931	     29.02357223	     13.82555548	      6.45071810	     -4.68605146	     -0.79251856	     -0.07972171
      0.49416667	     -7.43191056	     -0.63281377	     -1.99665216	     -0.81916064	      1.01491018	      0.28836710	     37.19037322	      2.64406445	     -3.18639142	    -23.14562324	      7.27205983	     -0.96208713	      7.60084793	     -0.23635914	     -1.67408817	     -5.16945654	    -28.73476489	     28.88937348	     14.30415338	      6.58753404	     -4.77546546	     -0.66629778	     -0.06240300
      0.49833333	     -7.32484313	     -0.66818100	     -1.95685154	     -0.81251164	      1.01394179	      0.28865467	     37.10173402	      2.75285938	     -2.96753435	    -23.76797795	      7.19487973	     -1.33836579	      7.59535297	     -0.28920179	     -1.85170569	     -5.45972763	    -29.73880880	     28.69135185	     14.78182584	      6.78132926	     -4.86135761	     -0.53888180	     -0.04998482
      0.50250000	     -7.21633589	     -0.70094318	     -1.91935108	     -0.80585843	      1.01302325	      0.28895179	     37.01043733	      2.86251735	     -2.74251638	    -24.43322315	      7.12103468	     -1.72968911	      7.58700354	     -0.31050920	     -2.03473944	     -5.73306636	    -30.80606970	     28.41802391	     15.25667449	      7.03474618	     -4.94836800	     -0.41043578	     -0.03786315
      0.50666667	     -7.07664393	     -0.74233361	     -1.87480544	     -0.79918775	      1.01223903	      0.28924473	     36.87114975	      2.97998839	     -2.50735034	    -25.11056156	      7.04375371	     -2.18620564	      7.47330785	     -0.34422424	     -2.22824886	     -5.95513696	    -31.89584701	     27.96144857	     15.61509396	     10.94389887	     -5.08004030	     -0.27023470	      0.03467533
      0.51083333	     -6.99470257	     -0.75444718	     -1.84361000	     -0.79253481	      1.01135459	      0.28955264	     36.82244530	      3.06822915	     -2.30530891	    -25.87601218	      7.04054992	     -2.49429574	      7.46673379	     -0.26867298	     -2.41041357	     -6.22673976	    -33.08706670	     27.55356579	     16.09448488	     11.01162673	     -5.11750512	     -0.15662722	     -0.00614315
      0.51500000	     -6.88745261	     -0.78623598	     -1.80901210	     -0.78589797	      1.01060009	      0.28989157	     36.72731121	      3.18255626	     -2.07818413	    -26.62733773	      7.00195886	     -2.91483616	      7.44944515	     -0.18506635	     -2.62429672	     -6.47224082	    -34.33658140	     27.05643938	     16.53935895	     11.15320253	     -5.20062033	     -0.01610661	      0.00329751
      0.51916667	     -6.78015061	     -0.80871661	     -1.77999984	     -0.77928225	      1.00989740	      0.29024668	     36.63502258	      3.29129973	     -1.84724408	    -27.40581768	      7.00303868	     -3.31404243	      7.42441747	     -0.07088962	     -2.83543307	     -6.70512634	    -35.63370226	     26.47765790	     16.96619439	     11.35682972	     -5.28184599	      0.11256098	      0.01450566
      0.52333333	     -6.66563634	     -0.82904508	     -1.75615016	     -0.77269566	      1.00926344	      0.29061923	     36.53489194	      3.40104555	     -1.61517231	    -28.20178441	      7.03719428	     -3.70565126	      7.38873438	      0.07587642	     -3.05295608	     -6.92672294	    -36.99239205	     25.81354433	     17.36498091	     11.63040394	     -5.37351943	      0.23941441	      0.03007159
      0.52750000	     -6.55747143	     -0.84451990	     -1.72557871	     -0.76612171	      1.00870453	      0.29096880	     36.43554567	      3.49939199	     -1.40066995	    -29.00298937	      7.13133938	     -4.05019707	      6.78303040	      0.25521799	     -3.26100866	     -7.08844125	    -38.36901852	     24.94263231	     17.61865997	     16.10851011	     -5.46387696	      0.37253658	      0.06267581
      0.53166667	     -6.47013605	     -0.83518373	     -1.70950652	     -0.75959172	      1.00816949	      0.29135737	     36.36086074	      3.58408346	     -1.16046762	    -29.81693338	      7.28456660	     -4.34238056	      6.77628989	      0.49427589	     -3.44322115	     -7.22902592	    -39.80434872	     24.08280319	     17.89378768	     16.13925605	     -5.53091253	      0.47224601	      0.06282118
      0.53583333	     -6.38277894	     -0.84909469	     -1.70128400	     -0.75310117	      1.00767983	      0.29178063	     36.27786582	      3.69546021	     -0.94238802	    -30.62042836	      7.41799393	     -4.69298112	      6.75134589	      0.77657447	     -3.67362629	     -7.40941264	    -41.31468549	     23.20262519	     18.18815047	     16.23500590	     -5.58927352	      0.59316566	      0.07332569
      0.54000000	     -6.26077777	     -0.84209010	     -1.68199781	     -0.74665317	      1.00734317	      0.29213391	     36.15118730	      3.76668108	     -0.76343706	    -31.42034173	      7.66421691	     -4.92183592	      6.74325623	      1.04531213	     -3.85765319	     -7.49938925	    -42.82327269	     22.18707751	     18.30568454	     16.27010701	     -5.69998630	      0.70236296	      0.09613178
      0.54416667	     -6.20643263	     -0.85423821	     -1.69682952	     -0.74023653	      1.00693350	      0.29262267	     36.07477826	      3.89540472	     -0.50956117	    -32.17380503	      7.85724632	     -5.24112684	      6.69365387	      1.42667827	     -4.09865314	     -7.66893189	    -44.40545655	     21.15330206	     18.56635343	     16.43383001	     -5.72805306	      0.81771753	      0.10955633
      0.54833333	     -6.09540170	     -0.85582970	     -1.68254613	     -0.73387489	      1.00673205	      0.29297965	     35.92314833	      3.97460357	     -0.34193505	    -32.90659936	      8.17131325	     -5.44099764	      6.67799874	      1.77797931	     -4.29652199	     -7.72708286	    -45.98740603	     20.03017885	     18.62139449	     16.48520042	     -5.84186879	      0.94280903	      0.13807859
      0.55250000	     -6.07975073	     -0.86273820	     -1.69476625	     -0.72752082	      1.00643041	      0.29342113	     35.85361277	      4.08437303	     -0.13273884	    -33.59862060	      8.43661372	     -5.68039736	      6.58528039	      2.26017532	     -4.51437894	     -7.80968141	    -47.60312376	     18.88255693	     18.68379867	     16.72723972	     -5.81511465	      1.05891075	      0.14667246
      0.55666667	     -5.95801002	     -0.87618967	     -1.68890119	     -0.72123899	      1.00640203	      0.29376940	     35.64576668	      4.17152783	      0.01436363	    -34.24598071	      8.82088716	     -5.84092681	      6.56691619	      2.65370242	     -4.72297252	     -7.84826740	    -49.21214917	     17.71091357	     18.68473504	     16.76944785	     -5.95227348	      1.19501052	      0.18208081
      0.56083333	     -5.91414524	     -0.89157267	     -1.68782693	     -0.71496756	      1.00633278	      0.29412207	     35.49748318	      4.26231693	      0.16159033	    -34.85130543	      9.24674266	     -5.90176398	      5.06740086	      3.15954497	     -4.92763139	     -7.85631290	    -50.82602279	     16.44617211	     18.54201481	     19.51579300	     -5.97426404	      1.33930047	      0.12035753
      0.56500000	     -5.84235093	     -0.91674605	     -1.69449771	     -0.70874332	      1.00641034	      0.29447726	     35.28449072	      4.36460273	      0.31338788	    -35.37866786	      9.62573160	     -6.04678788	      5.06941904	      3.65925887	     -5.14422832	     -7.87821206	    -52.43930460	     15.23969140	     18.46345916	     19.48959013	     -6.04666164	      1.47685868	      0.20119748
      0.56916667	     -5.79870698	     -0.94784271	     -1.70063069	     -0.70254660	      1.00650225	      0.29477967	     35.08596687	      4.45902474	      0.42176752	    -35.87654726	     10.02172187	     -6.13823796	      5.05990850	      4.21112474	     -5.35023854	     -7.86584915	    -54.05074092	     14.05980383	     18.25343392	     19.43360281	     -6.07407715	      1.63022828	      0.26272120
